# xmcd
#
# Track frame offsets: 
#        150
#        16669
#        33542
#        51027
#        68134
#        89585
#        109439
#        126494
#        144004
#        162218
#        184171
#        198756
#        214246
#        232896
#        250841
#
# Disc length: 3565 seconds
#
# Revision: 0
# Processed by: cddbd v1.5.2PL0 Copyright (c) Steve Scherf et al.
# Submitted via: ExactAudioCopyFreeDBPlugin 1.0
#
DISCID=cd0deb0f
DTITLE=Burhan G - Burhan G (Special Edition)
DYEAR=2011
DGENRE=R&B
TTITLE0=I Stedet For Dig
TTITLE1=Jeg Vil Ha Dig For Mig Selv
TTITLE2=Mest Ondt (Feat. Medina)
TTITLE3=Hvor Er Du
TTITLE4=Tættere På Himlen (Feat. Nik and Jay)
TTITLE5=Sommerregn
TTITLE6=Kun Dig
TTITLE7=Kryptonit
TTITLE8=Søvnløs
TTITLE9=En Sang Til Dig
TTITLE10=Jeg I Live - 2011
TTITLE11=Ankerstjerne - Tag Hvad Du Vil (Feat. Burhan G)
TTITLE12=Jeg Vil Ha Dig For Mig Selv (Feat. Nik and Jay)
TTITLE13=Smuk I Nat (Demo 2008)
TTITLE14=Tiden Heler Ingen Sår
EXTD=
EXTT0=
EXTT1=
EXTT2=
EXTT3=
EXTT4=
EXTT5=
EXTT6=
EXTT7=
EXTT8=
EXTT9=
EXTT10=
EXTT11=
EXTT12=
EXTT13=
EXTT14=
PLAYORDER=
